<svg width="20" height="20" viewBox="0 0 20 20" fill="none" xmlns="http://www.w3.org/2000/svg">
<g clip-path="url(#clip0_2209_59328)">
<path d="M14.0613 13.7884C14.2896 13.633 14.3487 13.322 14.1934 13.0937C14.038 12.8654 13.727 12.8063 13.4987 12.9617L14.0613 13.7884ZM10 14.5455V15.0455L10.0073 15.0454L10 14.5455ZM3 10L2.57144 9.74244C2.47902 9.89623 2.47608 10.0878 2.56375 10.2443L3 10ZM6.50166 7.03812C6.72982 6.88256 6.78868 6.5715 6.63312 6.34334C6.47756 6.11518 6.1665 6.05632 5.93834 6.21188L6.50166 7.03812ZM8.56129 5.10203C8.29099 5.15852 8.11766 5.42344 8.17415 5.69374C8.23064 5.96404 8.49556 6.13737 8.76586 6.08088L8.56129 5.10203ZM9.99994 5.45509L9.99889 5.95509H9.99994V5.45509ZM16.9999 10.0005L17.4289 10.2574C17.5209 10.1037 17.5237 9.91253 17.4362 9.75625L16.9999 10.0005ZM15.2615 11.4701C15.0721 11.6711 15.0815 11.9875 15.2825 12.1769C15.4834 12.3663 15.7999 12.3569 15.9893 12.156L15.2615 11.4701ZM11.6951 11.567C11.8944 11.3759 11.9012 11.0594 11.7102 10.86C11.5191 10.6607 11.2026 10.6539 11.0032 10.8449L11.6951 11.567ZM8.97074 9.18124C9.18301 9.00463 9.21193 8.68937 9.03531 8.47709C8.8587 8.26481 8.54344 8.2359 8.33116 8.41251L8.97074 9.18124ZM13.4987 12.9617C12.4951 13.6447 11.2665 14.0269 9.9927 14.0455L10.0073 15.0454C11.4687 15.0241 12.8893 14.586 14.0613 13.7884L13.4987 12.9617ZM10 14.0455C7.95115 14.0455 6.31856 13.0004 5.17437 11.9107C4.60505 11.3684 4.16741 10.825 3.87246 10.4172C3.72526 10.2137 3.61438 10.0451 3.54112 9.92879C3.50451 9.87068 3.47735 9.82573 3.45981 9.79612C3.45104 9.78132 3.44467 9.77037 3.44074 9.76354C3.43877 9.76013 3.43741 9.75774 3.43667 9.75642C3.43629 9.75576 3.43607 9.75537 3.436 9.75525C3.43597 9.75519 3.43597 9.75519 3.43601 9.75527C3.43603 9.75531 3.43609 9.75541 3.4361 9.75543C3.43617 9.75556 3.43625 9.7557 3 10C2.56375 10.2443 2.56385 10.2445 2.56395 10.2447C2.564 10.2448 2.56412 10.245 2.56422 10.2451C2.56442 10.2455 2.56465 10.2459 2.56493 10.2464C2.56548 10.2474 2.56619 10.2486 2.56706 10.2502C2.56879 10.2532 2.57115 10.2574 2.57414 10.2625C2.58011 10.2729 2.58858 10.2875 2.59954 10.306C2.62146 10.343 2.65334 10.3957 2.69503 10.4618C2.77837 10.5941 2.90116 10.7806 3.0622 11.0033C3.38373 11.4478 3.86086 12.0406 4.48472 12.6348C5.72689 13.8178 7.5943 15.0455 10 15.0455V14.0455ZM3.42856 10.2576C4.18118 9.00526 5.22781 7.90663 6.50166 7.03812L5.93834 6.21188C4.5511 7.1577 3.40196 8.36052 2.57144 9.74244L3.42856 10.2576ZM8.76586 6.08088C9.16973 5.99648 9.58355 5.95422 9.99889 5.95509L10.001 4.95509C9.51658 4.95408 9.03349 5.00335 8.56129 5.10203L8.76586 6.08088ZM9.99994 5.95509C12.0488 5.95509 13.6814 7.00018 14.8256 8.08989C15.3949 8.63211 15.8325 9.1756 16.1275 9.58336C16.2747 9.78685 16.3856 9.95547 16.4588 10.0718C16.4954 10.1299 16.5226 10.1748 16.5401 10.2044C16.5489 10.2192 16.5553 10.2302 16.5592 10.237C16.5612 10.2404 16.5625 10.2428 16.5633 10.2441C16.5636 10.2448 16.5639 10.2452 16.5639 10.2453C16.564 10.2454 16.564 10.2454 16.5639 10.2453C16.5639 10.2452 16.5638 10.2451 16.5638 10.2451C16.5638 10.245 16.5637 10.2449 16.9999 10.0005C17.4362 9.75625 17.4361 9.75607 17.436 9.75588C17.4359 9.75579 17.4358 9.75558 17.4357 9.7554C17.4355 9.75505 17.4353 9.75463 17.435 9.75414C17.4345 9.75316 17.4337 9.75191 17.4329 9.75038C17.4311 9.74733 17.4288 9.7432 17.4258 9.73801C17.4198 9.72764 17.4114 9.71307 17.4004 9.69458C17.3785 9.65759 17.3466 9.60489 17.3049 9.53872C17.2216 9.40643 17.0988 9.21993 16.9377 8.99728C16.6162 8.55277 16.1391 7.9599 15.5152 7.36575C14.273 6.18273 12.4056 4.95509 9.99994 4.95509V5.95509ZM16.5709 9.74372C16.2036 10.3573 15.7649 10.936 15.2615 11.4701L15.9893 12.156C16.541 11.5705 17.0237 10.9343 17.4289 10.2574L16.5709 9.74372ZM11.0032 10.8449C10.6561 11.1775 10.114 11.3272 9.59119 11.208L9.36888 12.183C10.1989 12.3722 11.0903 12.1465 11.6951 11.567L11.0032 10.8449ZM9.59119 11.208C9.06987 11.0891 8.69993 10.7355 8.58342 10.3282L7.62198 10.6032C7.85097 11.4038 8.53738 11.9934 9.36888 12.183L9.59119 11.208ZM8.58342 10.3282C8.4691 9.92854 8.60094 9.4889 8.97074 9.18124L8.33116 8.41251C7.67946 8.95472 7.3908 9.79501 7.62198 10.6032L8.58342 10.3282Z" fill="#8A8A8A"/>
<path d="M3 3.75L17 16.25" stroke="#8A8A8A" stroke-linecap="round" stroke-linejoin="round"/>
</g>
<defs>
<clipPath id="clip0_2209_59328">
<rect width="20" height="20" fill="white"/>
</clipPath>
</defs>
</svg>
