<svg width="20" height="20" viewBox="0 0 20 20" fill="none" xmlns="http://www.w3.org/2000/svg">
<path d="M10 12C11.1046 12 12 11.1046 12 10C12 8.89543 11.1046 8 10 8C8.89543 8 8 8.89543 8 10C8 11.1046 8.89543 12 10 12Z" fill="#6B7280"/>
<path d="M10 5C13.3137 5 16.2847 7.41899 17.6923 10.7692C17.8974 11.2564 17.8974 11.7436 17.6923 12.2308C16.2847 15.581 13.3137 18 10 18C6.68629 18 3.71533 15.581 2.30769 12.2308C2.10256 11.7436 2.10256 11.2564 2.30769 10.7692C3.71533 7.41899 6.68629 5 10 5Z" stroke="#6B7280" stroke-width="2" stroke-linecap="round" stroke-linejoin="round"/>
</svg>
