<svg width="20" height="20" viewBox="0 0 20 20" fill="none" xmlns="http://www.w3.org/2000/svg">
<path fill-rule="evenodd" clip-rule="evenodd" d="M10 0C15.52 0 20 4.48 20 10C20 15.52 15.52 20 10 20C4.48 20 0 15.52 0 10C0 4.48 4.48 0 10 0ZM9.99935 14.9998C10.5493 14.9998 10.9993 14.5498 10.9993 13.9998V9.99984C10.9993 9.44984 10.5493 8.99984 9.99935 8.99984C9.44935 8.99984 8.99935 9.44984 8.99935 9.99984V13.9998C8.99935 14.5498 9.44935 14.9998 9.99935 14.9998ZM8.99935 6C8.99935 6.55228 9.44706 7 9.99935 7C10.5516 7 10.9993 6.55228 10.9993 6C10.9993 5.44772 10.5516 5 9.99935 5C9.44706 5 8.99935 5.44772 8.99935 6Z" fill="#F7931A"/>
</svg>
